PathFileType	4	(X/Y/Z)	C:/Users/opensim2020/Desktop/walking_exp_matlab/subject06_walking23_straight_02.trc																																																																																																																																					
DataRate	CameraRate	NumFrames	NumMarkers	Units	OrigDataRate	OrigDataStartFrame	OrigNumFrames																																																																																																																																	
100	100	8	45	mm	100	1305	114																																																																																																																																	
Frame#	Time	LFHD			RFHD			LBHD			RBHD			C7			T10			CLAV			STRN			RBAK			LSHO			LUPA			LELB			LFRM			LWRA			LWRB			LFIN			RSHO			RUPA			RELB			RFRM			RWRA			RWRB			RFIN			LASI			RASI			LPSI			RPSI			LTHI			LKNE			LTIB			LANK			LHEE			LTOE			RTHI			RKNE			RTIB			RANK			RHEE			RTOE			*39			*40			*41			*42			*43			*44		
		X1	Y1	Z1	X2	Y2	Z2	X3	Y3	Z3	X4	Y4	Z4	X5	Y5	Z5	X6	Y6	Z6	X7	Y7	Z7	X8	Y8	Z8	X9	Y9	Z9	X10	Y10	Z10	X11	Y11	Z11	X12	Y12	Z12	X13	Y13	Z13	X14	Y14	Z14	X15	Y15	Z15	X16	Y16	Z16	X17	Y17	Z17	X18	Y18	Z18	X19	Y19	Z19	X20	Y20	Z20	X21	Y21	Z21	X22	Y22	Z22	X23	Y23	Z23	X24	Y24	Z24	X25	Y25	Z25	X26	Y26	Z26	X27	Y27	Z27	X28	Y28	Z28	X29	Y29	Z29	X30	Y30	Z30	X31	Y31	Z31	X32	Y32	Z32	X33	Y33	Z33	X34	Y34	Z34	X35	Y35	Z35	X36	Y36	Z36	X37	Y37	Z37	X38	Y38	Z38	X39	Y39	Z39	X40	Y40	Z40	X41	Y41	Z41	X42	Y42	Z42	X43	Y43	Z43	X44	Y44	Z44	X45	Y45	Z45
																																																																																																																																								
29	0.28	-411.02719	1617.37048	885.86163	-391.0835	1617.70715	1016.85181	-543.76416	1567.64441	910.90533	-522.21393	1572.57898	1038.58911	-538.0885	1410.05554	967.85614	-568.78644	1080.6377	980.28082	-424.40924	1336.25256	967.41101	-379.25888	1166.3136	969.42584	-608.46625	1242.04395	1054.23767	-486.4053	1360.87622	805.65576	-540.99298	1168.91943	736.73798	-583.26697	1064.49622	727.09015	-614.23151	919.91833	696.5968	-593.99902	787.41522	724.72955	-656.23962	809.00201	694.98828	-652.77551	717.14838	689.88928	-471.36469	1370.67566	1127.60168	-488.35019	1180.58838	1233.44226	-458.09894	1066.90955	1259.01685	-385.48618	975.62476	1274.18958	-263.29028	897.22565	1229.47607	-302.06879	867.94196	1275.57056	-227.8452	830.14166	1271.53052	-378.76843	933.03967	886.32343	-402.37833	933.5426	1102.05908	-537.35681	948.86432	891.61499	-549.49152	953.40967	1058.53918	-358.22629	624.71509	815.45477	-293.05869	480.15182	845.14301	-251.59886	226.9808	853.83429	-209.11884	62.80235	894.99457	-243.56027	43.50966	943.04425	-64.04951	62.41224	895.81372	-514.58807	598.71118	1147.01367	-542.50952	473.29068	1128.27148	-734.06744	277.97064	1117.64319	-860.20087	141.62698	1071.57666	-905.68555	147.49847	1027.6449	-758.21216	31.06191	1065.25256	-500.13184	1663.67725	956.14331	NaN	NaN	NaN	NaN	NaN	NaN	NaN	NaN	NaN	NaN	NaN	NaN	NaN	NaN	NaN
30	0.29	-395.88431	1619.17139	884.51483	-376.38474	1619.49646	1015.52094	-528.42383	1568.97595	909.00403	-507.52145	1573.92456	1036.75964	-522.65363	1411.52563	965.9386	-552.64996	1081.51733	979.65326	-408.91815	1337.89026	965.82269	-363.33038	1168.01172	968.00983	-593.02618	1242.82227	1051.9469	-470.78964	1361.63525	803.8717	-524.60559	1169.3147	735.2804	-566.60657	1064.67358	725.7854	-597.13397	919.88306	695.81598	-577.43005	787.4519	724.91687	-638.89764	808.98798	694.4491	-635.39258	717.18915	689.60767	-456.38208	1371.88867	1126.32446	-474.1528	1181.35278	1231.69031	-444.78082	1067.31702	1257.43262	-373.19901	975.27148	1272.78027	-251.29776	895.92169	1228.3866	-290.55652	866.84631	1274.18665	-216.67035	828.48303	1270.41455	-361.72263	934.90076	885.32825	-385.10065	934.83612	1100.68628	-521.2041	951.37518	890.88995	-533.0824	953.72784	1058.14404	-341.42526	628.58093	815.22241	-275.74387	483.83191	844.25061	-240.42525	229.64122	852.36981	-205.30246	63.04549	893.95001	-241.85472	45.45435	941.68964	-61.02728	57.54065	896.34894	-494.69131	597.35504	1146.75281	-520.19617	471.33664	1129.05652	-716.54199	282.2984	1116.6709	-848.12976	152.22823	1070.68579	-891.29926	161.69325	1025.80859	-758.18433	31.37293	1064.33521	-485.46277	1665.13135	954.39429	NaN	NaN	NaN	NaN	NaN	NaN	NaN	NaN	NaN	NaN	NaN	NaN	NaN	NaN	NaN
31	0.3	-380.64178	1621.23926	883.16339	-361.68369	1621.54321	1014.19604	-513.125	1570.8147	907.03046	-492.61319	1575.69373	1034.80481	-506.96918	1413.63916	964.20007	-537.08063	1083.20581	979.23792	-393.64145	1339.79272	964.43188	-347.70453	1170.31396	966.57806	-577.41437	1244.24133	1049.9032	-455.18539	1363.08765	802.19843	-507.7413	1170.17371	733.86023	-549.25391	1065.28235	724.41943	-579.05109	920.30133	694.60156	-559.04346	787.99146	724.77911	-620.26831	809.20709	693.56421	-616.54315	717.41205	689.36096	-441.15704	1373.69519	1125.21155	-460.16895	1182.79688	1229.70447	-431.59543	1068.30554	1255.52942	-361.26151	975.17535	1271.03369	-240.02312	894.47412	1227.2771	-280.06781	865.74011	1272.69238	-206.64069	826.42609	1269.20898	-345.13251	937.68628	884.09052	-368.9895	936.15564	1098.97339	-505.81314	954.19128	891.28998	-516.89368	954.25885	1058.30017	-324.49026	633.19702	814.49011	-258.2337	488.23386	844.06525	-232.44849	231.86343	850.23047	-203.66608	63.47829	892.77069	-240.54327	46.52526	939.84186	-58.35463	52.08102	897.99243	-473.87329	596.19452	1146.49609	-496.1701	469.54724	1130.13074	-697.19073	287.42642	1115.98755	-833.80963	163.87595	1069.46057	-874.27838	176.78333	1023.72449	-757.72882	32.79045	1063.3175	-470.56256	1667.02722	952.61249	NaN	NaN	NaN	NaN	NaN	NaN	NaN	NaN	NaN	NaN	NaN	NaN	NaN	NaN	NaN
32	0.31	-365.29309	1623.09216	881.88159	-346.97803	1623.35095	1012.89813	-497.87155	1572.79712	905.13196	-477.94388	1577.60339	1032.99194	-491.37067	1415.80798	962.70313	-522.008	1085.31824	978.91736	-378.46112	1341.71643	963.13385	-332.23914	1172.67517	965.23175	-561.70441	1246.09167	1048.44824	-439.29346	1364.8678	800.84656	-490.4762	1171.45068	732.45032	-531.27875	1066.30518	723.08655	-559.78918	921.00299	693.63824	-539.35736	789.00586	724.78662	-600.37585	809.68713	692.59058	-596.33167	717.88867	689.00385	-425.73898	1375.95007	1123.93933	-446.46164	1184.85876	1227.61511	-418.49356	1069.96765	1253.19604	-349.72156	975.51697	1269.09338	-229.631	892.94684	1226.08984	-270.38992	864.64624	1271.08313	-197.55113	824.3476	1268.23682	-329.22876	941.03271	882.74286	-353.29132	937.53571	1097.20935	-490.90887	956.98889	892.19269	-500.9512	955.10254	1058.64075	-308.05505	637.69971	812.72107	-242.99115	491.62265	843.53571	-225.1703	233.81941	848.4845	-201.02528	63.469	891.57068	-238.2361	47.16882	937.83893	-55.7344	46.72589	899.73486	-452.47281	595.1496	1146.53625	-471.08585	468.01288	1131.4364	-676.09631	293.09079	1115.59314	-817.34534	175.67447	1068.11279	-855.42303	191.59409	1021.73621	-753.87305	36.48058	1062.71912	-455.49493	1668.96277	950.91693	NaN	NaN	NaN	NaN	NaN	NaN	NaN	NaN	NaN	NaN	NaN	NaN	NaN	NaN	NaN
33	0.32	-350.0542	1624.61035	880.59216	-332.22922	1624.84851	1011.65417	-482.72409	1574.48645	903.32849	-463.34494	1579.2262	1031.25183	-475.97372	1417.53955	961.32654	-507.09769	1087.43701	978.40668	-363.21902	1343.5177	961.92828	-317.06741	1174.66125	964.18646	-546.1496	1248.10229	1047.5127	-423.3848	1366.87146	799.75818	-472.87888	1172.98657	731.09338	-512.87799	1067.57458	721.75092	-539.74957	921.83612	692.86987	-518.80731	790.19806	724.69659	-579.16699	810.19916	691.41162	-574.5285	718.23694	688.6427	-410.44315	1378.34766	1122.46826	-432.85693	1187.104	1225.39722	-405.53116	1071.979	1250.48254	-338.49567	976.1701	1266.95703	-219.80795	891.27209	1224.8075	-261.56372	863.61798	1269.28931	-189.53973	821.89191	1267.08252	-314.00876	944.37762	881.29205	-337.75519	938.69226	1095.48755	-476.29984	959.34015	893.01532	-485.34045	955.92126	1058.90942	-292.54114	641.25592	810.38177	-229.9639	493.2963	842.3241	-217.86632	234.98164	847.53851	-197.64755	63.3459	891.09674	-236.90308	48.83889	936.80597	-53.17372	42.58682	900.65125	-430.67978	594.31677	1146.70178	-445.84052	466.91171	1132.69116	-653.58752	299.07159	1115.53333	-798.93585	187.44577	1066.78308	-834.46545	205.97269	1020.05841	-747.21387	41.45329	1062.48621	-440.40866	1670.604	949.32361	NaN	NaN	NaN	NaN	NaN	NaN	NaN	NaN	NaN	NaN	NaN	NaN	NaN	NaN	NaN
34	0.33	-334.88583	1626.05005	879.2558	-317.44608	1626.29907	1010.41003	-467.45145	1575.65283	901.6698	-448.62192	1580.61084	1029.59473	-461.06418	1418.81104	960.11713	-492.4205	1089.49097	977.60876	-348.03391	1345.16833	960.81848	-302.50974	1176.10437	963.51331	-530.87134	1250.12793	1046.86987	-407.50616	1368.91223	798.80273	-455.25977	1174.58594	729.70288	-494.22403	1068.85974	720.43365	-519.09204	922.68219	691.82819	-497.20874	791.42194	724.617	-557.05951	810.7287	690.11743	-551.51685	718.62726	688.43988	-395.31174	1380.65454	1120.8822	-419.16925	1189.61047	1223.55505	-392.90018	1074.06995	1247.67017	-327.67978	976.92432	1264.79443	-210.55145	889.38611	1223.37842	-253.16615	862.5235	1267.50806	-182.03493	819.4032	1265.9436	-299.23929	947.22797	879.73853	-322.48361	939.77899	1093.92969	-462.11807	961.36206	893.55621	-470.20004	956.65411	1058.93555	-279.36194	642.70874	808.80579	-218.25146	493.65683	841.05835	-210.41862	234.96693	847.32104	-195.31856	63.28288	891.53046	-235.37335	49.62154	937.11969	-51.40937	40.40522	900.43158	-408.78763	593.81805	1146.69861	-420.37988	466.24686	1133.55298	-629.52887	304.69629	1115.46863	-777.78613	198.32039	1065.99805	-810.65308	219.25252	1018.44476	-739.50385	45.8959	1062.51282	-425.53433	1671.98755	947.71698	NaN	NaN	NaN	NaN	NaN	NaN	NaN	NaN	NaN	NaN	NaN	NaN	NaN	NaN	NaN
35	0.34	-319.89346	1627.55066	877.94971	-302.82568	1628.07031	1009.20428	-452.54544	1576.94458	900.07343	-433.97491	1582.06274	1028.1145	-446.37534	1419.97412	958.89783	-477.58606	1091.43689	976.64099	-332.83292	1346.82227	959.94141	-287.30688	1177.66956	962.9436	-516.02106	1252.19751	1046.31128	-391.77353	1370.92896	797.97052	-437.53024	1176.1936	728.36322	-475.3689	1070.02698	719.08234	-497.69965	923.31335	690.87585	-474.40649	792.53381	724.19189	-534.12952	810.73389	689.16144	-527.81683	718.61987	687.87939	-380.45575	1382.78882	1119.40381	-405.46039	1192.01611	1221.9314	-380.73248	1076.0022	1245.0293	-317.24838	977.50769	1262.64087	-201.76106	887.28162	1221.85754	-245.19205	861.30914	1265.76208	-175.1295	816.47308	1264.51978	-284.92151	949.50836	878.27325	-307.6575	941.00293	1092.76404	-447.3432	962.98212	893.13287	-455.31744	957.44806	1058.48682	-268.65729	642.20288	808.1123	-207.13611	493.24545	840.25531	-203.23164	233.93314	847.61121	-194.26584	63.36172	892.3006	-234.64284	50.15017	937.83704	-50.3827	38.70062	900.68878	-387.21014	593.73065	1146.5509	-394.98431	466.06973	1134.03491	-604.08246	309.41119	1115.68091	-754.65692	207.29942	1065.60754	-784.29517	230.93509	1017.21271	-730.0343	50.80848	1062.19202	-410.86414	1673.35901	946.07849	NaN	NaN	NaN	NaN	NaN	NaN	NaN	NaN	NaN	NaN	NaN	NaN	NaN	NaN	NaN
36	0.35	-305.0629	1629.14075	876.72668	-288.19379	1630.17749	1007.96204	-437.54953	1578.26318	898.72662	-419.22528	1583.80359	1026.7262	-431.63489	1421.45691	957.64453	-462.89178	1093.3551	975.59332	-317.75894	1348.51733	959.16449	-272.54205	1179.18604	962.435	-501.45404	1254.38696	1045.60449	-376.15289	1372.89246	797.0871	-419.95703	1177.67761	727.07513	-456.31909	1071.00061	717.63257	-476.3981	923.88348	689.48688	-451.245	793.55554	724.04932	-510.91391	810.72699	687.66711	-502.91171	718.54535	687.42651	-365.82477	1384.78662	1118.1311	-391.71515	1194.24902	1220.5874	-368.86243	1077.71765	1242.76697	-307.24066	977.84534	1260.66504	-193.36714	884.92285	1220.27966	-237.68919	859.93927	1264.00354	-168.59856	813.34985	1262.7998	-271.21246	951.1524	877.11115	-293.12027	942.5296	1091.87561	-432.95535	964.65839	892.26117	-440.80423	958.45544	1057.745	-258.47852	641.29779	808.28162	-196.49763	492.54309	839.94183	-197.56845	233.03612	848.62695	-193.32141	63.46081	893.12207	-234.14839	50.56569	938.39264	-49.48606	37.63744	901.82434	-366.00381	594.1886	1146.21948	-369.27689	466.55835	1134.23145	-577.15637	312.88211	1116.23816	-730.25482	214.85599	1065.54858	-756.33063	240.83707	1016.67267	-717.50519	56.16031	1061.50635	-396.27734	1674.94519	944.49799	NaN	NaN	NaN	NaN	NaN	NaN	NaN	NaN	NaN	NaN	NaN	NaN	NaN	NaN	NaN
